<svg width="53" height="11" viewBox="0 0 53 11" fill="none" xmlns="http://www.w3.org/2000/svg">
<path d="M0.0387074 10V0.545454H3.40874C4.14429 0.545454 4.75367 0.679332 5.23686 0.947088C5.72005 1.21484 6.08168 1.58108 6.32173 2.04581C6.56179 2.50746 6.68182 3.02758 6.68182 3.60618C6.68182 4.18785 6.56025 4.71106 6.31712 5.17578C6.07706 5.63743 5.7139 6.00367 5.22763 6.2745C4.74444 6.54226 4.1366 6.67614 3.40412 6.67614H1.08665V5.46662H3.27486C3.73958 5.46662 4.1166 5.3866 4.4059 5.22656C4.69519 5.06345 4.90755 4.84186 5.04297 4.56179C5.17839 4.28172 5.24609 3.96319 5.24609 3.60618C5.24609 3.24917 5.17839 2.93217 5.04297 2.65518C4.90755 2.3782 4.69366 2.16122 4.40128 2.00426C4.11198 1.8473 3.73035 1.76882 3.25639 1.76882H1.4652V10H0.0387074ZM10.2434 10.157C9.79409 10.157 9.38784 10.0739 9.02468 9.90767C8.66152 9.7384 8.37376 9.49373 8.1614 9.17365C7.95212 8.85357 7.84748 8.46117 7.84748 7.99645C7.84748 7.59635 7.92442 7.26705 8.0783 7.00852C8.23219 6.75 8.43993 6.54534 8.70153 6.39453C8.96313 6.24373 9.2555 6.12985 9.57866 6.05291C9.90181 5.97597 10.2311 5.9175 10.5666 5.87749C10.9913 5.82824 11.336 5.78823 11.6007 5.75746C11.8654 5.7236 12.0577 5.66974 12.1777 5.59588C12.2978 5.52202 12.3578 5.40199 12.3578 5.2358V5.20348C12.3578 4.80031 12.2439 4.48793 12.0162 4.26633C11.7915 4.04474 11.456 3.93395 11.0098 3.93395C10.545 3.93395 10.1788 4.03705 9.91104 4.24325C9.64637 4.44638 9.46325 4.67259 9.36168 4.92188L8.06445 4.62642C8.21834 4.19555 8.443 3.84777 8.73846 3.5831C9.03699 3.31534 9.38015 3.12145 9.76793 3.00142C10.1557 2.87831 10.5635 2.81676 10.9913 2.81676C11.2744 2.81676 11.5745 2.85062 11.8915 2.91832C12.2116 2.98295 12.5101 3.10298 12.7871 3.27841C13.0672 3.45383 13.2965 3.70466 13.475 4.03089C13.6535 4.35405 13.7427 4.77415 13.7427 5.29119V10H12.3947V9.03054H12.3393C12.2501 9.20904 12.1162 9.38447 11.9377 9.55682C11.7592 9.72917 11.5299 9.87228 11.2498 9.98615C10.9698 10.1 10.6343 10.157 10.2434 10.157ZM10.5435 9.04901C10.9251 9.04901 11.2514 8.9736 11.5222 8.8228C11.7961 8.67199 12.0038 8.47502 12.1454 8.23189C12.2901 7.98568 12.3624 7.72254 12.3624 7.44247V6.52841C12.3132 6.57765 12.2177 6.62382 12.0762 6.6669C11.9377 6.70691 11.7792 6.74231 11.6007 6.77308C11.4222 6.80078 11.2483 6.82694 11.079 6.85156C10.9097 6.87311 10.7682 6.89157 10.6543 6.90696C10.3865 6.94081 10.1419 6.99775 9.92028 7.07777C9.70176 7.15779 9.52634 7.2732 9.394 7.42401C9.26474 7.57173 9.20011 7.7687 9.20011 8.01491C9.20011 8.35653 9.32629 8.61506 9.57866 8.79048C9.83103 8.96283 10.1526 9.04901 10.5435 9.04901ZM18.5681 10.1431C17.8818 10.1431 17.2909 9.98769 16.7954 9.67685C16.3029 9.36293 15.9244 8.93052 15.6597 8.37962C15.395 7.82872 15.2627 7.1978 15.2627 6.48686C15.2627 5.76669 15.3981 5.13115 15.6689 4.58026C15.9398 4.02628 16.3214 3.59387 16.8138 3.28303C17.3063 2.97218 17.8864 2.81676 18.5542 2.81676C19.0928 2.81676 19.5729 2.91679 19.9946 3.11683C20.4162 3.3138 20.7563 3.59079 21.0148 3.9478C21.2764 4.30481 21.4318 4.72183 21.4811 5.19886H20.1377C20.0638 4.86648 19.8946 4.58026 19.6299 4.3402C19.3683 4.10014 19.0174 3.98011 18.5773 3.98011C18.1926 3.98011 17.8556 4.08168 17.5663 4.2848C17.2801 4.48485 17.057 4.77107 16.8969 5.14347C16.7369 5.51278 16.6569 5.94981 16.6569 6.45455C16.6569 6.97159 16.7354 7.41785 16.8923 7.79332C17.0493 8.1688 17.2709 8.45964 17.5571 8.66584C17.8464 8.87204 18.1865 8.97514 18.5773 8.97514C18.8389 8.97514 19.0759 8.92744 19.2883 8.83203C19.5037 8.73355 19.6837 8.59351 19.8284 8.41193C19.9761 8.23035 20.0792 8.01184 20.1377 7.75639H21.4811C21.4318 8.21496 21.2826 8.62429 21.0333 8.98438C20.784 9.34446 20.4501 9.6276 20.0315 9.83381C19.616 10.04 19.1282 10.1431 18.5681 10.1431ZM24.3375 5.78977V10H22.9572V0.545454H24.3191V4.06321H24.4068C24.573 3.68158 24.8269 3.37843 25.1685 3.15376C25.5101 2.9291 25.9564 2.81676 26.5073 2.81676C26.9935 2.81676 27.4183 2.91679 27.7814 3.11683C28.1477 3.31688 28.4308 3.61541 28.6309 4.01243C28.834 4.40637 28.9355 4.89879 28.9355 5.4897V10H27.5552V5.65589C27.5552 5.13577 27.4213 4.7326 27.1536 4.44638C26.8858 4.15708 26.5134 4.01243 26.0364 4.01243C25.7102 4.01243 25.4178 4.08168 25.1593 4.22017C24.9038 4.35866 24.7022 4.56179 24.5545 4.82955C24.4099 5.09422 24.3375 5.4143 24.3375 5.78977ZM33.8336 10.1431C33.135 10.1431 32.5333 9.99384 32.0286 9.69531C31.5269 9.3937 31.1391 8.97053 30.8652 8.42578C30.5944 7.87796 30.459 7.23627 30.459 6.50071C30.459 5.77438 30.5944 5.13423 30.8652 4.58026C31.1391 4.02628 31.5208 3.59387 32.0101 3.28303C32.5025 2.97218 33.0781 2.81676 33.7367 2.81676C34.1368 2.81676 34.5246 2.88293 34.9 3.01527C35.2755 3.14761 35.6125 3.35535 35.911 3.63849C36.2096 3.92164 36.445 4.28942 36.6174 4.74183C36.7897 5.19117 36.8759 5.73745 36.8759 6.38068V6.87003H31.2392V5.83594H35.5233C35.5233 5.47277 35.4494 5.15116 35.3017 4.87109C35.1539 4.58795 34.9462 4.36482 34.6784 4.2017C34.4138 4.03859 34.1029 3.95703 33.7459 3.95703C33.3581 3.95703 33.0196 4.05244 32.7303 4.24325C32.4441 4.43099 32.2225 4.6772 32.0655 4.98189C31.9116 5.2835 31.8347 5.61127 31.8347 5.9652V6.77308C31.8347 7.24704 31.9178 7.65021 32.084 7.9826C32.2533 8.31499 32.4887 8.56889 32.7903 8.74432C33.0919 8.91667 33.4443 9.00284 33.8475 9.00284C34.1091 9.00284 34.3476 8.96591 34.563 8.89205C34.7785 8.8151 34.9647 8.70123 35.1216 8.55043C35.2786 8.39962 35.3986 8.21342 35.4817 7.99183L36.7882 8.22727C36.6835 8.61198 36.4958 8.94898 36.225 9.23828C35.9572 9.5245 35.6202 9.74763 35.214 9.90767C34.8108 10.0646 34.3507 10.1431 33.8336 10.1431ZM41.3943 10.1431C40.7079 10.1431 40.117 9.98769 39.6215 9.67685C39.1291 9.36293 38.7506 8.93052 38.4859 8.37962C38.2212 7.82872 38.0889 7.1978 38.0889 6.48686C38.0889 5.76669 38.2243 5.13115 38.4951 4.58026C38.766 4.02628 39.1476 3.59387 39.64 3.28303C40.1324 2.97218 40.7126 2.81676 41.3804 2.81676C41.919 2.81676 42.3991 2.91679 42.8208 3.11683C43.2424 3.3138 43.5825 3.59079 43.841 3.9478C44.1026 4.30481 44.258 4.72183 44.3073 5.19886H42.9639C42.89 4.86648 42.7207 4.58026 42.4561 4.3402C42.1945 4.10014 41.8436 3.98011 41.4035 3.98011C41.0188 3.98011 40.6818 4.08168 40.3925 4.2848C40.1063 4.48485 39.8831 4.77107 39.7231 5.14347C39.5631 5.51278 39.483 5.94981 39.483 6.45455C39.483 6.97159 39.5615 7.41785 39.7185 7.79332C39.8754 8.1688 40.097 8.45964 40.3833 8.66584C40.6726 8.87204 41.0126 8.97514 41.4035 8.97514C41.6651 8.97514 41.9021 8.92744 42.1144 8.83203C42.3299 8.73355 42.5099 8.59351 42.6546 8.41193C42.8023 8.23035 42.9054 8.01184 42.9639 7.75639H44.3073C44.258 8.21496 44.1088 8.62429 43.8595 8.98438C43.6102 9.34446 43.2762 9.6276 42.8577 9.83381C42.4422 10.04 41.9544 10.1431 41.3943 10.1431ZM48.7702 10.1431C48.1055 10.1431 47.5253 9.99077 47.0298 9.68608C46.5343 9.38139 46.1496 8.95514 45.8757 8.40732C45.6018 7.85949 45.4648 7.21934 45.4648 6.48686C45.4648 5.7513 45.6018 5.10807 45.8757 4.55717C46.1496 4.00627 46.5343 3.57848 47.0298 3.27379C47.5253 2.96911 48.1055 2.81676 48.7702 2.81676C49.435 2.81676 50.0152 2.96911 50.5107 3.27379C51.0062 3.57848 51.3909 4.00627 51.6648 4.55717C51.9387 5.10807 52.0756 5.7513 52.0756 6.48686C52.0756 7.21934 51.9387 7.85949 51.6648 8.40732C51.3909 8.95514 51.0062 9.38139 50.5107 9.68608C50.0152 9.99077 49.435 10.1431 48.7702 10.1431ZM48.7749 8.98438C49.2057 8.98438 49.5627 8.8705 49.8459 8.64276C50.129 8.41501 50.3383 8.11186 50.4737 7.73331C50.6122 7.35476 50.6815 6.93774 50.6815 6.48224C50.6815 6.02983 50.6122 5.61435 50.4737 5.2358C50.3383 4.85417 50.129 4.54794 49.8459 4.31712C49.5627 4.08629 49.2057 3.97088 48.7749 3.97088C48.3409 3.97088 47.9808 4.08629 47.6946 4.31712C47.4115 4.54794 47.2006 4.85417 47.0621 5.2358C46.9267 5.61435 46.859 6.02983 46.859 6.48224C46.859 6.93774 46.9267 7.35476 47.0621 7.73331C47.2006 8.11186 47.4115 8.41501 47.6946 8.64276C47.9808 8.8705 48.3409 8.98438 48.7749 8.98438Z" fill="#3DE0F2"/>
</svg>
