<svg width="80" height="72" viewBox="0 0 80 72" fill="none" xmlns="http://www.w3.org/2000/svg">
<path d="M80 35.9633C80 30.6633 73.3633 25.64 63.1867 22.5266C65.5367 12.1566 64.4933 3.90331 59.8933 1.25998C58.7787 0.635714 57.5172 0.321487 56.24 0.34998V3.98331C56.99 3.98331 57.5933 4.13331 58.1 4.40998C60.3167 5.68331 61.28 10.5233 60.53 16.7533C60.35 18.2866 60.0567 19.9 59.6967 21.5466C56.2888 20.7254 52.83 20.1319 49.3433 19.77C47.2662 16.9043 45 14.1804 42.56 11.6166C47.8767 6.67665 52.8667 3.96998 56.26 3.96998V0.333313C51.7733 0.333313 45.9033 3.52998 39.9667 9.07331C34.0333 3.56665 28.16 0.39998 23.6767 0.39998V4.03331C27.0533 4.03331 32.06 6.72665 37.3767 11.6333C35.0933 14.0333 32.81 16.7533 30.64 19.77C27.1461 20.1279 23.6812 20.7271 20.27 21.5633C19.8933 19.9333 19.6167 18.3533 19.42 16.8366C18.6533 10.6033 19.6 5.76331 21.8033 4.47665C22.29 4.18331 22.9267 4.04998 23.6767 4.04998V0.416646C22.31 0.416646 21.0667 0.70998 19.9933 1.32665C15.41 3.96998 14.3833 12.2033 16.7467 22.5433C6.60333 25.6766 0 30.68 0 35.9633C0 41.2633 6.63667 46.2866 16.8133 49.3966C14.4633 59.77 15.5067 68.0233 20.1067 70.6633C21.1667 71.2833 22.4067 71.5766 23.7733 71.5766C28.26 71.5766 34.13 68.38 40.0667 62.8366C46 68.3466 51.87 71.51 56.3567 71.51C57.6437 71.5372 58.9148 71.222 60.04 70.5967C64.6233 67.9567 65.65 59.7233 63.2867 49.3833C73.3967 46.27 80 41.2466 80 35.9633ZM58.7667 25.0866C58.1333 27.2662 57.3992 29.4151 56.5667 31.5266C55.2039 28.8758 53.7075 26.2959 52.0833 23.7966C54.4 24.14 56.6333 24.5633 58.77 25.0866H58.7667ZM51.3 42.4533C50.03 44.6533 48.7233 46.7433 47.37 48.6833C42.4775 49.1145 37.5568 49.1201 32.6633 48.7C29.8565 44.6906 27.4018 40.4459 25.3267 36.0133C27.3986 31.5703 29.8429 27.3107 32.6333 23.28C37.5246 22.8479 42.4442 22.8412 47.3367 23.26C48.69 25.2 50.0133 27.2733 51.2833 29.46C52.5233 31.5933 53.65 33.76 54.6767 35.9466C53.6386 38.1598 52.5121 40.3305 51.3 42.4533V42.4533ZM56.5667 40.3333C57.4467 42.5166 58.2 44.7033 58.8167 46.8233C56.6833 47.3466 54.43 47.7866 52.1 48.1266C53.7175 45.6047 55.2082 43.0037 56.5667 40.3333V40.3333ZM40.0333 57.7333C38.5167 56.1666 37 54.4233 35.5 52.5133C36.9667 52.58 38.4667 52.63 39.9833 52.63C41.5167 52.63 43.0333 52.5966 44.5167 52.5133C43.05 54.4233 41.5333 56.1666 40.0333 57.7333ZM27.9 48.1266C25.6525 47.801 23.4212 47.3716 21.2133 46.84C21.8167 44.7366 22.5667 42.5666 23.4133 40.4C24.0833 41.7 24.7867 43.0066 25.5533 44.3133C26.32 45.6166 27.1 46.89 27.9 48.1266ZM39.95 14.1933C41.4667 15.76 42.9833 17.5033 44.4833 19.4133C43.0167 19.3466 41.5167 19.2966 40 19.2966C38.4667 19.2966 36.95 19.33 35.4667 19.4133C36.9333 17.5033 38.45 15.76 39.95 14.1933ZM27.8833 23.8C26.2662 26.3164 24.7755 28.9119 23.4167 31.5766C22.5607 29.4515 21.8098 27.2856 21.1667 25.0866C23.3 24.58 25.5533 24.14 27.8833 23.8ZM13.1267 44.2133C7.35333 41.7533 3.62 38.5233 3.62 35.9633C3.62 33.4033 7.35333 30.1566 13.1267 27.7133C14.5267 27.11 16.06 26.57 17.6433 26.0666C18.5733 29.26 19.7967 32.5866 21.31 35.9966C19.8812 39.2039 18.6729 42.5049 17.6933 45.8766C16.1448 45.3972 14.6208 44.8421 13.1267 44.2133V44.2133ZM21.9 67.5133C19.6833 66.2466 18.72 61.4 19.47 55.1733C19.65 53.64 19.9433 52.0233 20.3033 50.3767C23.4967 51.16 26.9867 51.7633 30.6567 52.1567C32.7339 55.0223 35.0001 57.7461 37.44 60.31C32.1233 65.25 27.1333 67.9567 23.74 67.9567C23.0998 67.9636 22.4678 67.8125 21.9 67.5167V67.5133ZM60.58 55.09C61.3467 61.32 60.4 66.1633 58.1967 67.45C57.71 67.7433 57.0733 67.8733 56.3233 67.8733C52.9467 67.8733 47.94 65.1833 42.6233 60.2733C44.9067 57.88 47.19 55.1566 49.36 52.14C52.8539 51.7821 56.3188 51.1829 59.73 50.3466C60.1067 51.9933 60.3967 53.5733 60.58 55.09V55.09ZM66.8567 44.2133C65.4567 44.8166 63.9233 45.3566 62.34 45.86C61.3432 42.471 60.1182 39.1535 58.6733 35.93C60.1733 32.54 61.3767 29.23 62.29 26.05C63.9067 26.5533 65.4367 27.11 66.8733 27.7133C72.6467 30.1733 76.38 33.4033 76.38 35.9633C76.3633 38.5233 72.63 41.77 66.8567 44.2133V44.2133Z" fill="#00BBFF"/>
<path d="M39.9828 43.4163C41.9596 43.4163 43.8554 42.6311 45.2531 41.2333C46.6509 39.8355 47.4362 37.9398 47.4362 35.963C47.4362 33.9863 46.6509 32.0905 45.2531 30.6927C43.8554 29.2949 41.9596 28.5097 39.9828 28.5097C38.0061 28.5097 36.1103 29.2949 34.7125 30.6927C33.3148 32.0905 32.5295 33.9863 32.5295 35.963C32.5295 37.9398 33.3148 39.8355 34.7125 41.2333C36.1103 42.6311 38.0061 43.4163 39.9828 43.4163V43.4163Z" fill="#00BBFF"/>
</svg>
