<svg width="80" height="49" viewBox="0 0 80 49" fill="none" xmlns="http://www.w3.org/2000/svg">
<path d="M20 16.0417C22.6659 5.34797 29.3341 0 40 0C56 0 58 12.0312 66 14.0364C71.3341 15.3739 76 13.3687 80 8.02078C77.3341 18.7145 70.6659 24.0625 60 24.0625C44 24.0625 42 12.0313 34 10.0261C28.6659 8.68859 24 10.6938 20 16.0417ZM0 40.1042C2.66594 29.4105 9.33406 24.0625 20 24.0625C36 24.0625 38 36.0938 46 38.0989C51.3341 39.4364 56 37.4313 60 32.0833C57.3341 42.777 50.6659 48.125 40 48.125C24 48.125 22 36.0937 14 34.0886C8.66594 32.7511 4 34.7562 0 40.1042Z" fill="#00BBFF"/>
</svg>
