<svg width="96" height="20" viewBox="0 0 96 20" fill="none" xmlns="http://www.w3.org/2000/svg">
<path d="M0.917614 19V1.54545H7.1392C8.49716 1.54545 9.62216 1.79261 10.5142 2.28693C11.4063 2.78125 12.0739 3.45739 12.517 4.31534C12.9602 5.16761 13.1818 6.12784 13.1818 7.19602C13.1818 8.26989 12.9574 9.2358 12.5085 10.0938C12.0653 10.946 11.3949 11.6222 10.4972 12.1222C9.60511 12.6165 8.48295 12.8636 7.13068 12.8636H2.85227V10.6307H6.89205C7.75 10.6307 8.44602 10.483 8.98011 10.1875C9.5142 9.88636 9.90625 9.47727 10.1562 8.96023C10.4062 8.44318 10.5312 7.85511 10.5312 7.19602C10.5312 6.53693 10.4062 5.9517 10.1562 5.44034C9.90625 4.92898 9.51136 4.52841 8.97159 4.23864C8.4375 3.94886 7.73295 3.80398 6.85795 3.80398H3.55114V19H0.917614ZM21.4148 19.2642C20.1875 19.2642 19.1165 18.983 18.2017 18.4205C17.2869 17.858 16.5767 17.071 16.071 16.0597C15.5653 15.0483 15.3125 13.8665 15.3125 12.5142C15.3125 11.1562 15.5653 9.96875 16.071 8.9517C16.5767 7.93466 17.2869 7.14489 18.2017 6.58239C19.1165 6.01989 20.1875 5.73864 21.4148 5.73864C22.642 5.73864 23.7131 6.01989 24.6278 6.58239C25.5426 7.14489 26.2528 7.93466 26.7585 8.9517C27.2642 9.96875 27.517 11.1562 27.517 12.5142C27.517 13.8665 27.2642 15.0483 26.7585 16.0597C26.2528 17.071 25.5426 17.858 24.6278 18.4205C23.7131 18.983 22.642 19.2642 21.4148 19.2642ZM21.4233 17.125C22.2188 17.125 22.8778 16.9148 23.4006 16.4943C23.9233 16.0739 24.3097 15.5142 24.5597 14.8153C24.8153 14.1165 24.9432 13.3466 24.9432 12.5057C24.9432 11.6705 24.8153 10.9034 24.5597 10.2045C24.3097 9.5 23.9233 8.93466 23.4006 8.50852C22.8778 8.08239 22.2188 7.86932 21.4233 7.86932C20.6222 7.86932 19.9574 8.08239 19.429 8.50852C18.9063 8.93466 18.517 9.5 18.2614 10.2045C18.0114 10.9034 17.8864 11.6705 17.8864 12.5057C17.8864 13.3466 18.0114 14.1165 18.2614 14.8153C18.517 15.5142 18.9063 16.0739 19.429 16.4943C19.9574 16.9148 20.6222 17.125 21.4233 17.125ZM30.3615 19V5.90909H32.8246V7.98864H32.9609C33.1996 7.28409 33.62 6.73011 34.2223 6.3267C34.8303 5.91761 35.5178 5.71307 36.2848 5.71307C36.4439 5.71307 36.6314 5.71875 36.8473 5.73011C37.0689 5.74148 37.2422 5.75568 37.3672 5.77273V8.21023C37.2649 8.18182 37.0831 8.15057 36.8217 8.11648C36.5604 8.0767 36.299 8.05682 36.0376 8.05682C35.4354 8.05682 34.8984 8.18466 34.4268 8.44034C33.9609 8.69034 33.5916 9.03977 33.3189 9.48864C33.0462 9.93182 32.9098 10.4375 32.9098 11.0057V19H30.3615ZM46.4567 5.90909V7.95455H39.3061V5.90909H46.4567ZM41.2237 2.77273H43.772V15.1562C43.772 15.6506 43.8459 16.0227 43.9936 16.2727C44.1413 16.517 44.3317 16.6847 44.5646 16.7756C44.8033 16.8608 45.0618 16.9034 45.3402 16.9034C45.5447 16.9034 45.7237 16.8892 45.8771 16.8608C46.0305 16.8324 46.1499 16.8097 46.2351 16.7926L46.6953 18.8977C46.5476 18.9545 46.3374 19.0114 46.0646 19.0682C45.7919 19.1307 45.451 19.1648 45.0419 19.1705C44.3714 19.1818 43.7464 19.0625 43.1669 18.8125C42.5874 18.5625 42.1186 18.1761 41.7607 17.6534C41.4027 17.1307 41.2237 16.4744 41.2237 15.6847V2.77273ZM55.5057 5.90909V7.95455H48.108V5.90909H55.5057ZM50.1364 19V4.39204C50.1364 3.57386 50.3153 2.89489 50.6733 2.35511C51.0313 1.80966 51.5057 1.40341 52.0966 1.13636C52.6875 0.863636 53.3295 0.727272 54.0227 0.727272C54.5341 0.727272 54.9716 0.769886 55.3352 0.855114C55.6989 0.934659 55.9688 1.00852 56.1449 1.0767L55.5483 3.1392C55.429 3.10511 55.2756 3.06534 55.0881 3.01989C54.9006 2.96875 54.6733 2.94318 54.4062 2.94318C53.7869 2.94318 53.3438 3.09659 53.0767 3.40341C52.8153 3.71023 52.6847 4.15341 52.6847 4.73295V19H50.1364ZM63.1335 19.2642C61.9063 19.2642 60.8352 18.983 59.9205 18.4205C59.0057 17.858 58.2955 17.071 57.7898 16.0597C57.2841 15.0483 57.0312 13.8665 57.0312 12.5142C57.0312 11.1562 57.2841 9.96875 57.7898 8.9517C58.2955 7.93466 59.0057 7.14489 59.9205 6.58239C60.8352 6.01989 61.9063 5.73864 63.1335 5.73864C64.3608 5.73864 65.4318 6.01989 66.3466 6.58239C67.2614 7.14489 67.9716 7.93466 68.4773 8.9517C68.983 9.96875 69.2358 11.1562 69.2358 12.5142C69.2358 13.8665 68.983 15.0483 68.4773 16.0597C67.9716 17.071 67.2614 17.858 66.3466 18.4205C65.4318 18.983 64.3608 19.2642 63.1335 19.2642ZM63.142 17.125C63.9375 17.125 64.5966 16.9148 65.1193 16.4943C65.642 16.0739 66.0284 15.5142 66.2784 14.8153C66.5341 14.1165 66.6619 13.3466 66.6619 12.5057C66.6619 11.6705 66.5341 10.9034 66.2784 10.2045C66.0284 9.5 65.642 8.93466 65.1193 8.50852C64.5966 8.08239 63.9375 7.86932 63.142 7.86932C62.3409 7.86932 61.6761 8.08239 61.1477 8.50852C60.625 8.93466 60.2358 9.5 59.9801 10.2045C59.7301 10.9034 59.6051 11.6705 59.6051 12.5057C59.6051 13.3466 59.7301 14.1165 59.9801 14.8153C60.2358 15.5142 60.625 16.0739 61.1477 16.4943C61.6761 16.9148 62.3409 17.125 63.142 17.125ZM62.0852 4.16193L64.0795 0.232954H66.7642L64.1222 4.16193H62.0852ZM74.6286 1.54545V19H72.0803V1.54545H74.6286ZM78.0568 19V5.90909H80.6051V19H78.0568ZM79.3438 3.8892C78.9006 3.8892 78.5199 3.74148 78.2017 3.44602C77.8892 3.14489 77.733 2.78693 77.733 2.37216C77.733 1.9517 77.8892 1.59375 78.2017 1.29829C78.5199 0.997159 78.9006 0.846591 79.3438 0.846591C79.7869 0.846591 80.1648 0.997159 80.4773 1.29829C80.7955 1.59375 80.9545 1.9517 80.9545 2.37216C80.9545 2.78693 80.7955 3.14489 80.4773 3.44602C80.1648 3.74148 79.7869 3.8892 79.3438 3.8892ZM89.5476 19.2642C88.3203 19.2642 87.2493 18.983 86.3345 18.4205C85.4197 17.858 84.7095 17.071 84.2038 16.0597C83.6982 15.0483 83.4453 13.8665 83.4453 12.5142C83.4453 11.1562 83.6982 9.96875 84.2038 8.9517C84.7095 7.93466 85.4197 7.14489 86.3345 6.58239C87.2493 6.01989 88.3203 5.73864 89.5476 5.73864C90.7749 5.73864 91.8459 6.01989 92.7607 6.58239C93.6754 7.14489 94.3857 7.93466 94.8913 8.9517C95.397 9.96875 95.6499 11.1562 95.6499 12.5142C95.6499 13.8665 95.397 15.0483 94.8913 16.0597C94.3857 17.071 93.6754 17.858 92.7607 18.4205C91.8459 18.983 90.7749 19.2642 89.5476 19.2642ZM89.5561 17.125C90.3516 17.125 91.0107 16.9148 91.5334 16.4943C92.0561 16.0739 92.4425 15.5142 92.6925 14.8153C92.9482 14.1165 93.076 13.3466 93.076 12.5057C93.076 11.6705 92.9482 10.9034 92.6925 10.2045C92.4425 9.5 92.0561 8.93466 91.5334 8.50852C91.0107 8.08239 90.3516 7.86932 89.5561 7.86932C88.755 7.86932 88.0902 8.08239 87.5618 8.50852C87.0391 8.93466 86.6499 9.5 86.3942 10.2045C86.1442 10.9034 86.0192 11.6705 86.0192 12.5057C86.0192 13.3466 86.1442 14.1165 86.3942 14.8153C86.6499 15.5142 87.0391 16.0739 87.5618 16.4943C88.0902 16.9148 88.755 17.125 89.5561 17.125Z" fill="#00D2DF"/>
</svg>
